<svg width="160" height="44" viewBox="0 0 160 44" fill="none" xmlns="http://www.w3.org/2000/svg">
<path d="M35.367 7.67578V12.4053C35.9502 12.8125 36.3885 13.3957 36.6181 14.07C36.8477 14.7443 36.8566 15.4745 36.6436 16.1543C36.4305 16.834 36.0066 17.4279 35.4336 17.8493C34.8605 18.2707 34.1683 18.4977 33.4576 18.4973H7.69611C5.82194 18.4976 4.01227 19.1835 2.60655 20.4263C1.20082 21.6691 0.295619 23.3833 0.0607183 25.2476C-0.174182 27.1118 0.27736 28.9979 1.33065 30.5522C2.38395 32.1064 3.96663 33.222 5.78183 33.6896V28.9558C5.19977 28.5479 4.76268 27.9645 4.53412 27.2904C4.30555 26.6164 4.29744 25.8867 4.51096 25.2077C4.72448 24.5287 5.1485 23.9356 5.72135 23.5149C6.29419 23.0941 6.98598 22.8675 7.69611 22.8681H18.399H22.7566H33.4594C35.3339 22.8677 37.1437 22.1816 38.5495 20.9384C39.9552 19.6953 40.8601 17.9805 41.0945 16.1159C41.3288 14.2513 40.8765 12.3651 39.8223 10.8112C38.7681 9.2572 37.1846 8.14235 35.3688 7.67578H35.367ZM18.3977 24.4581V33.5982C18.3859 34.4783 18.0289 35.3182 17.404 35.9363C16.7791 36.5544 15.9366 36.9009 15.0588 36.9009C14.181 36.9009 13.3384 36.5544 12.7136 35.9363C12.0887 35.3182 11.7317 34.4783 11.7198 33.5982V29.5635H7.69611C7.58541 29.5635 7.47594 29.558 7.36646 29.5475V33.9281C7.53954 38.0334 10.9223 41.3183 15.0572 41.3183C17.0986 41.3162 19.0557 40.5021 20.4989 39.0547C21.9422 37.6073 22.7537 35.6449 22.7553 33.5982V24.4581H18.3977Z" fill="#3EBC9E"/>
<path d="M22.8037 7.70191C22.8037 7.26328 22.8899 6.82894 23.0574 6.42369C23.2248 6.01845 23.4703 5.65023 23.7797 5.34007C24.0891 5.02991 24.4565 4.78388 24.8608 4.61602C25.265 4.44816 25.6984 4.36177 26.1359 4.36177C26.5735 4.36177 27.0068 4.44816 27.4111 4.61602C27.8154 4.78388 28.1828 5.02991 28.4922 5.34007C28.8016 5.65023 29.0471 6.01845 29.2145 6.42369C29.382 6.82894 29.4682 7.26328 29.4682 7.70191V11.7272H33.4833C33.5919 11.7272 33.7 11.7327 33.8062 11.7431V7.31162C33.6035 3.24594 30.2414 0 26.1359 0C24.099 0.00226797 22.1462 0.814523 20.7062 2.25849C19.2661 3.70246 18.4564 5.66016 18.4547 7.70191V16.8212H22.8037V7.70191Z" fill="#3EBC9E"/>
<path d="M54.4491 20.7838V34.031H50.5304V20.7838H49.1432V17.1426H50.5304V10.623C50.5304 8.49607 50.9003 6.99334 51.6401 6.11482C52.6573 4.88951 54.137 4.27686 56.0789 4.27686C56.7725 4.27686 57.6453 4.47915 58.6972 4.88373V8.87176L58.2984 8.66369C57.4545 8.23598 56.761 8.02213 56.2177 8.02213C55.5241 8.02213 55.0559 8.27066 54.8132 8.76772C54.5704 9.25322 54.4491 10.1895 54.4491 11.5767V17.1426H58.6972V20.7838H54.4491Z" fill="#3D3D3D"/>
<path d="M66.9833 4.74502V34.031H63.0819V4.74502H66.9833Z" fill="#3D3D3D"/>
<path d="M77.2481 30.8926L69.6535 17.1426H74.179L79.3461 26.8526L84.1665 17.1426H88.5706L75.1154 43.2208H70.6592L77.2481 30.8926Z" fill="#3D3D3D"/>
<path d="M94.4042 17.1426L98.7737 26.6271L103.126 17.1426H107.513L98.7391 35.1927L90.0348 17.1426H94.4042Z" fill="#3D3D3D"/>
<path d="M121.905 17.1426H125.824V34.031H121.905V32.2624C120.298 33.7651 118.57 34.5165 116.721 34.5165C114.386 34.5165 112.455 33.6727 110.929 31.985C109.415 30.2626 108.658 28.1125 108.658 25.5348C108.658 23.0032 109.415 20.8936 110.929 19.2059C112.444 17.5183 114.339 16.6744 116.617 16.6744C118.582 16.6744 120.344 17.4836 121.905 19.1019V17.1426ZM112.646 25.5348C112.646 27.1531 113.079 28.4709 113.946 29.4881C114.836 30.5169 115.958 31.0313 117.31 31.0313C118.755 31.0313 119.923 30.5343 120.813 29.5401C121.703 28.5113 122.148 27.2051 122.148 25.6215C122.148 24.0378 121.703 22.7316 120.813 21.7028C119.923 20.6971 118.767 20.1943 117.345 20.1943C116.004 20.1943 114.883 20.7029 113.981 21.7201C113.091 22.7489 112.646 24.0205 112.646 25.5348Z" fill="#3D3D3D"/>
<path d="M140.207 20.0209L136.982 21.7375C136.473 20.6971 135.843 20.1769 135.092 20.1769C134.733 20.1769 134.427 20.2983 134.173 20.5411C133.919 20.7723 133.791 21.0728 133.791 21.4427C133.791 22.09 134.543 22.7316 136.045 23.3674C138.115 24.2574 139.508 25.0782 140.224 25.8295C140.941 26.5809 141.299 27.5924 141.299 28.8639C141.299 30.4938 140.698 31.8578 139.496 32.956C138.328 33.9963 136.918 34.5165 135.265 34.5165C132.433 34.5165 130.428 33.1351 129.249 30.3724L132.578 28.8292C133.04 29.6384 133.393 30.1528 133.635 30.3724C134.109 30.8117 134.676 31.0313 135.335 31.0313C136.652 31.0313 137.311 30.4302 137.311 29.228C137.311 28.5345 136.803 27.8871 135.785 27.286C135.392 27.0895 134.999 26.8988 134.606 26.7138C134.213 26.5289 133.815 26.3382 133.41 26.1416C132.277 25.5868 131.479 25.0319 131.017 24.4771C130.428 23.772 130.133 22.8645 130.133 21.7548C130.133 20.2868 130.636 19.073 131.641 18.1136C132.67 17.1541 133.919 16.6744 135.387 16.6744C137.548 16.6744 139.155 17.7899 140.207 20.0209Z" fill="#3D3D3D"/>
<path d="M159.844 26.5058H147.741C147.845 27.8929 148.296 28.9968 149.094 29.8176C149.891 30.6267 150.914 31.0313 152.163 31.0313C153.134 31.0313 153.937 30.8001 154.573 30.3377C155.197 29.8754 155.908 29.02 156.706 27.7715L160 29.6095C159.491 30.4765 158.954 31.222 158.387 31.8463C157.821 32.4589 157.214 32.9675 156.567 33.3721C155.92 33.7651 155.22 34.0541 154.469 34.2391C153.717 34.424 152.902 34.5165 152.024 34.5165C149.504 34.5165 147.481 33.7073 145.955 32.089C144.429 30.4591 143.666 28.2975 143.666 25.6041C143.666 22.9339 144.406 20.7723 145.886 19.1193C147.377 17.4894 149.354 16.6744 151.816 16.6744C154.301 16.6744 156.266 17.4662 157.711 19.0499C159.145 20.622 159.861 22.801 159.861 25.5868L159.844 26.5058ZM155.839 23.3153C155.295 21.2346 153.983 20.1943 151.903 20.1943C151.429 20.1943 150.984 20.2694 150.567 20.4197C150.151 20.5584 149.77 20.7665 149.423 21.0439C149.088 21.3098 148.799 21.6334 148.556 22.0149C148.313 22.3964 148.128 22.8299 148.001 23.3153H155.839Z" fill="#3D3D3D"/>
</svg>
