<svg id="レイヤー_1" data-name="レイヤー 1" xmlns="http://www.w3.org/2000/svg" xmlns:xlink="http://www.w3.org/1999/xlink" viewBox="0 0 1920 1080"><defs><style>.cls-1{fill:none;}.cls-2{fill:#f7b916;}.cls-3{fill:url(#新規パターンスウォッチ_1);}</style><pattern id="新規パターンスウォッチ_1" data-name="新規パターンスウォッチ 1" width="111.04" height="111.04" patternUnits="userSpaceOnUse" viewBox="0 0 111.04 111.04"><rect class="cls-1" width="111.04" height="111.04"/><rect class="cls-2" width="111.04" height="111.04"/></pattern></defs><path class="cls-3" d="M646.73,413.12v46.14a32.63,32.63,0,0,1-18.66,59.42h-252A75.28,75.28,0,0,0,357.4,666.87V620.69a32.63,32.63,0,0,1,18.72-59.38h252a75.27,75.27,0,0,0,18.66-148.19ZM480.79,576.82V666a32.66,32.66,0,0,1-65.31,0V626.62H376.12a31.41,31.41,0,0,1-3.22-.16v42.71h0A75.28,75.28,0,0,0,523.4,666V576.82Z"/><path class="cls-3" d="M523.41,414a32.66,32.66,0,1,1,65.31,0v39.35h39.35c1.07,0,2.12.05,3.16.15v-43.3A75.27,75.27,0,0,0,480.78,414v89.16h42.63Z"/><path class="cls-3" d="M836.81,546.1V651.41H805.08V546.1h-19.9v-29h19.9V465.32q0-25.35,9-35.84,12.36-14.61,36-14.61,8.41,0,21.2,4.83v31.7L868,449.75q-10.26-5.1-16.85-5.1-8.43,0-11.37,5.92t-3,22.33v44.25h34.4v29Z"/><path class="cls-3" d="M921.05,418.6V651.41H889.46V418.6Z"/><path class="cls-3" d="M998.41,626.46,936.92,517.15h36.64l41.84,77.19,39-77.19h35.66L981.14,724.46H945.06Z"/><path class="cls-3" d="M1128.56,517.15l35.38,75.4,35.24-75.4h35.52l-71,143.49-70.48-143.49Z"/><path class="cls-3" d="M1333.84,517.15h31.73V651.41h-31.73V637.35q-19.52,17.92-42,17.92-28.36,0-46.89-20.13-18.39-20.53-18.39-51.27,0-30.2,18.39-50.31t46-20.13q23.87,0,42.82,19.3Zm-75,66.72q0,19.29,10.53,31.42a34.71,34.71,0,0,0,27.24,12.27q17.53,0,28.36-11.85,10.8-12.27,10.81-31.15T1325,553.4q-10.82-12-28.08-12a35.22,35.22,0,0,0-27.24,12.13Q1258.87,565.81,1258.87,583.87Z"/><path class="cls-3" d="M1467.66,540l-26.12,13.65q-6.18-12.4-15.3-12.41a10.66,10.66,0,0,0-7.44,2.83,9.37,9.37,0,0,0-3.09,7.24q0,7.71,18.25,15.3,25.13,10.61,33.84,19.57t8.7,24.12q0,19.44-14.6,32.53-14.18,12.4-34.26,12.41-34.4,0-48.72-32.95l27-12.26q5.61,9.65,8.57,12.26a19.68,19.68,0,0,0,13.75,5.24q16,0,16-14.33,0-8.28-12.36-15.44-4.77-2.34-9.54-4.55t-9.69-4.55q-13.75-6.62-19.37-13.23-7.17-8.41-7.16-21.64,0-17.51,12.21-29,12.5-11.45,30.33-11.44Q1454.88,513.43,1467.66,540Z"/><path class="cls-3" d="M1617.89,591.59h-98q1.27,16.53,11,26.32t24.85,9.65q11.79,0,19.51-5.51t17.27-20.4l26.68,14.61A104.52,104.52,0,0,1,1606.1,634a69.14,69.14,0,0,1-14.74,12.13,59.88,59.88,0,0,1-17,7,84.26,84.26,0,0,1-19.8,2.21q-30.6,0-49.14-19.3t-18.53-51.55q0-31.84,18-51.55,18.12-19.44,48-19.44,30.18,0,47.73,18.88t17.41,52Zm-32.43-25.37q-6.6-24.81-31.87-24.81a33.5,33.5,0,0,0-10.81,1.72,31.15,31.15,0,0,0-9.2,5,31.65,31.65,0,0,0-7.09,7.79,35.92,35.92,0,0,0-4.49,10.33Z"/></svg>