<svg width="375" height="225" viewBox="0 0 375 225" fill="none" xmlns="http://www.w3.org/2000/svg">
<path d="M19.5653 224.497C19.5402 224.387 17.114 213.346 22.069 204.176C27.0239 195.006 37.6007 190.962 37.707 190.922L38.1904 190.741L38.3046 191.244C38.3296 191.354 40.7559 202.395 35.8009 211.565C30.8462 220.735 20.2692 224.779 20.1629 224.819L19.6793 225L19.5653 224.497ZM37.5274 191.968C35.4088 192.878 27.0472 196.858 22.8624 204.603C18.6771 212.348 19.9398 221.508 20.3424 223.773C22.4602 222.866 30.8185 218.892 35.0075 211.139C39.1926 203.393 37.9303 194.235 37.5274 191.968V191.968Z" fill="#F1F1F1"/>
<path d="M32.0143 208.349C23.11 213.695 19.6807 224.314 19.6807 224.314C19.6807 224.314 30.6881 226.265 39.5924 220.919C48.4967 215.573 51.926 204.954 51.926 204.954C51.926 204.954 40.9186 203.003 32.0143 208.349Z" fill="#F1F1F1"/>
<path d="M166.859 122.647C166.994 121.947 166.975 121.227 166.801 120.536C166.628 119.845 166.305 119.2 165.854 118.647C165.404 118.094 164.838 117.646 164.196 117.335C163.553 117.024 162.85 116.858 162.137 116.847L158.013 106.499L151.1 107.466L157.129 121.998C157.191 123.196 157.691 124.33 158.534 125.184C159.378 126.039 160.506 126.555 161.705 126.635C162.904 126.715 164.092 126.353 165.041 125.618C165.991 124.883 166.638 123.826 166.859 122.647Z" fill="#9F616A"/>
<path d="M154.123 119.011L151.981 113.913L138.633 88.5584L139.359 41.6423L139.499 41.6239C148.039 40.4978 153.818 79.7695 154.06 81.442L162.493 110.225L164.501 116.569L154.123 119.011Z" fill="#F7B916"/>
<path d="M133.614 217.941L140.104 217.94L143.191 192.96L133.612 192.961L133.614 217.941Z" fill="#9F616A"/>
<path d="M131.958 215.826L144.739 215.826H144.739C146.9 215.826 148.971 216.682 150.499 218.207C152.026 219.731 152.884 221.798 152.884 223.954V224.218L131.959 224.219L131.958 215.826Z" fill="#2F2E41"/>
<path d="M73.9428 208.073L79.2676 211.776L96.1123 193.043L88.2537 187.578L73.9428 208.073Z" fill="#9F616A"/>
<path d="M73.7962 205.394L84.2821 212.686L84.2825 212.686C86.0547 213.919 87.2636 215.804 87.6435 217.926C88.0233 220.048 87.543 222.233 86.3081 224.002L86.1568 224.219L68.9883 212.28L73.7962 205.394Z" fill="#2F2E41"/>
<path d="M130.047 212.069L129.767 165.208L125.683 135.742L118.07 161.655L118.055 161.676L90.4669 201.646L79.7319 196.218L79.7907 196.078C80.4468 194.521 95.9055 157.948 100.061 157.948C100.423 157.974 100.787 157.911 101.12 157.765C101.453 157.619 101.746 157.394 101.972 157.11C103.192 155.485 102.199 152.036 102.188 152.002C100.999 147.08 103.99 145.403 104.585 145.124L106.188 112.118L106.354 112.13L149.788 115.17L147.966 156.435L144.046 210.501L143.911 210.516L130.047 212.069Z" fill="#2F2E41"/>
<path d="M150.451 122.484L150.264 122.468L103.551 118.711L103.667 103.287L105.953 63.0143L105.966 62.9864L115.277 42.8143L121.877 39.8318L131.507 39.3261L131.53 39.332L140.318 41.5048L149.46 106.996L150.451 122.484Z" fill="#F7B916"/>
<path d="M133.015 34.1564C138.976 30.9051 141.166 23.4477 137.908 17.4999C134.65 11.5522 127.177 9.36631 121.217 12.6177C115.257 15.869 113.067 23.3264 116.325 29.2741C119.583 35.2219 127.055 37.4078 133.015 34.1564Z" fill="#9F616A"/>
<path d="M114.747 26.4679V21.6859C114.747 21.6859 110.883 17.144 115.134 15.9999C115.134 15.9999 116.293 4.55875 126.341 9.89794C126.341 9.89794 140.253 7.60972 138.707 15.6185C138.707 15.6185 142.185 13.5277 141.025 18.8669L138.783 27.4674C138.783 27.4674 139.866 21.7861 136.388 21.0234L134.456 19.8792C134.456 19.8792 129.046 25.2184 120.93 18.7351C120.93 18.7351 117.452 17.9068 117.839 21.3391C118.225 24.7714 114.747 26.4679 114.747 26.4679Z" fill="#2F2E41"/>
<path d="M125.836 110.965C125.843 110.253 125.695 109.548 125.4 108.899C125.105 108.25 124.671 107.674 124.128 107.21C123.586 106.747 122.949 106.408 122.261 106.217C121.573 106.026 120.851 105.988 120.147 106.106L114.23 96.664L107.603 98.8531L116.147 112.07C116.424 113.237 117.119 114.263 118.103 114.953C119.086 115.642 120.289 115.948 121.483 115.812C122.677 115.676 123.78 115.107 124.582 114.214C125.384 113.321 125.83 112.165 125.836 110.965Z" fill="#9F616A"/>
<path d="M110.552 107.989L99.8469 86.2991L99.8563 86.2464C99.8995 86.0062 104.209 62.1284 107.505 53.3516C110.821 44.5192 115.361 42.7459 115.553 42.6747L115.649 42.6391L119.719 46.5357L114.08 84.0961L120.159 102.211L110.552 107.989Z" fill="#F7B916"/>
<path d="M375 0H354.272V20.6853H375V0Z" fill="#F1F1F1"/>
<path d="M212.781 80.4926H192.053V101.178H212.781V80.4926Z" fill="#F1F1F1"/>
<path d="M203.687 92.1136H367.562V9.32363H203.687V92.1136Z" fill="white"/>
<path d="M368.914 93.4626H202.335V7.97453H368.914V93.4626ZM205.038 90.7646H366.21V10.6726H205.038V90.7646Z" fill="#E5E5E5"/>
<path d="M349.441 38.3648H223.357V42.5374H349.441V38.3648Z" fill="#E5E5E5"/>
<path d="M349.441 48.484H223.357V52.6566H349.441V48.484Z" fill="#E5E5E5"/>
<path d="M349.441 63.4253H326.009V67.0464H349.441V63.4253Z" fill="#F7B916"/>
<path d="M172.133 224.982H0.450609C0.3311 224.982 0.216486 224.934 0.13198 224.85C0.0474744 224.766 0 224.651 0 224.532C0 224.413 0.0474744 224.299 0.13198 224.214C0.216486 224.13 0.3311 224.082 0.450609 224.082H172.133C172.252 224.082 172.367 224.13 172.451 224.214C172.536 224.299 172.583 224.413 172.583 224.532C172.583 224.651 172.536 224.766 172.451 224.85C172.367 224.934 172.252 224.982 172.133 224.982Z" fill="#CBCBCB"/>
</svg>
