<svg id="レイヤー_1" data-name="レイヤー 1" xmlns="http://www.w3.org/2000/svg" xmlns:xlink="http://www.w3.org/1999/xlink" viewBox="0 0 1920 1080"><defs><style>.cls-1{fill:none;}.cls-2{fill:#f7b916;}.cls-3{fill:url(#新規パターンスウォッチ_1);}</style><pattern id="新規パターンスウォッチ_1" data-name="新規パターンスウォッチ 1" width="111.04" height="111.04" patternUnits="userSpaceOnUse" viewBox="0 0 111.04 111.04"><rect class="cls-1" width="111.04" height="111.04"/><rect class="cls-2" width="111.04" height="111.04"/></pattern></defs><path class="cls-3" d="M1201.83,327.87V405a54.57,54.57,0,0,1-31.22,99.35H749.39a125.86,125.86,0,0,0-31.3,247.76V674.91a54.56,54.56,0,0,1,31.3-99.28h175v0h71.25v0h175a125.85,125.85,0,0,0,31.22-247.76ZM924.37,601.56V750.62a54.6,54.6,0,0,1-109.19,0v-65.8H749.39c-1.81,0-3.6-.09-5.39-.26V756h0c2.83,66.95,58.14,120.52,125.75,120.52A126,126,0,0,0,995.62,750.62V601.56Z"/><path class="cls-3" d="M995.63,329.38a54.6,54.6,0,1,1,109.2,0v65.8h65.79c1.78,0,3.55.09,5.29.26V323c-3.32-66.46-58.41-119.52-125.68-119.52A126,126,0,0,0,924.37,329.38V478.45h71.26Z"/></svg>