<svg id="レイヤー_1" data-name="レイヤー 1" xmlns="http://www.w3.org/2000/svg" xmlns:xlink="http://www.w3.org/1999/xlink" viewBox="0 0 1920 1080"><defs><style>.cls-1{fill:none;}.cls-2{fill:#f7b916;}.cls-3{fill:url(#新規パターンスウォッチ_1);}</style><pattern id="新規パターンスウォッチ_1" data-name="新規パターンスウォッチ 1" width="111.04" height="111.04" patternUnits="userSpaceOnUse" viewBox="0 0 111.04 111.04"><rect class="cls-1" width="111.04" height="111.04"/><rect class="cls-2" width="111.04" height="111.04"/></pattern></defs><path class="cls-3" d="M1118.91,261.19v53.62a37.93,37.93,0,0,1-21.7,69.06H804.42a87.48,87.48,0,0,0-21.75,172.21V502.42a37.92,37.92,0,0,1,21.75-69h292.79a87.48,87.48,0,0,0,21.7-172.22ZM926.06,451.43V555a38,38,0,0,1-75.9,0V509.31H804.42c-1.26,0-2.5-.07-3.74-.19v49.63h0A87.48,87.48,0,0,0,975.58,555V451.43Z"/><path class="cls-3" d="M975.59,262.24a37.95,37.95,0,1,1,75.89,0V308h45.74c1.24,0,2.46.06,3.67.18V257.83a87.48,87.48,0,0,0-174.84,4.41V365.86h49.54Z"/><path class="cls-3" d="M701.23,778.91V853.5H678.75V778.91H664.66v-20.5h14.09V721.7q0-18,6.37-25.39Q693.87,686,710.58,686q6,0,15,3.41v22.46l-2.29-1.17q-7.26-3.61-11.93-3.62-6,0-8,4.2t-2.09,15.82v31.34h24.36v20.5Z"/><path class="cls-3" d="M760.89,688.6V853.5H738.52V688.6Z"/><path class="cls-3" d="M815.68,835.83l-43.55-77.42h26l29.64,54.67,27.64-54.67h25.26L803.45,905.24H777.9Z"/><path class="cls-3" d="M907.86,758.41l25.06,53.4,25-53.4H983L932.72,860,882.81,758.41Z"/><path class="cls-3" d="M1053.26,758.41h22.47V853.5h-22.47v-10q-13.83,12.69-29.73,12.69-20.09,0-33.22-14.25-13-14.55-13-36.32,0-21.37,13-35.64t32.62-14.25q16.91,0,30.33,13.67Zm-53.1,47.25q0,13.67,7.46,22.26a24.61,24.61,0,0,0,19.29,8.69q12.42,0,20.08-8.4,7.66-8.69,7.66-22.06T1047,784.08q-7.65-8.49-19.88-8.49a24.92,24.92,0,0,0-19.29,8.59Q1000.16,792.87,1000.16,805.66Z"/><path class="cls-3" d="M1148,774.61l-18.5,9.67q-4.38-8.79-10.84-8.79a7.56,7.56,0,0,0-5.27,2,6.65,6.65,0,0,0-2.19,5.13q0,5.46,12.93,10.83,17.8,7.53,24,13.87t6.16,17.08a29.7,29.7,0,0,1-10.34,23q-10.05,8.79-24.26,8.79-24.37,0-34.51-23.33l19.09-8.69q4,6.82,6.07,8.69a14,14,0,0,0,9.74,3.71q11.34,0,11.34-10.16,0-5.85-8.75-10.93-3.39-1.66-6.76-3.22c-2.26-1-4.55-2.12-6.86-3.22q-9.75-4.7-13.73-9.38-5.07-6-5.07-15.32a26.93,26.93,0,0,1,8.65-20.51,30.67,30.67,0,0,1,21.48-8.1Q1139,755.77,1148,774.61Z"/><path class="cls-3" d="M1254.44,811.13H1185q.9,11.72,7.76,18.64t17.6,6.84q8.35,0,13.82-3.91t12.23-14.45l18.9,10.35a74,74,0,0,1-9.25,12.55,49.26,49.26,0,0,1-10.44,8.59,42.48,42.48,0,0,1-12,4.93,59.73,59.73,0,0,1-14,1.56q-21.69,0-34.81-13.67t-13.12-36.51q0-22.56,12.72-36.51,12.84-13.77,34-13.77,21.38,0,33.81,13.38t12.33,36.8Zm-23-18q-4.67-17.56-22.57-17.57a23.69,23.69,0,0,0-7.66,1.22,22.06,22.06,0,0,0-11.53,9,25.52,25.52,0,0,0-3.18,7.32Z"/></svg>